<mxfile host="65bd71144e">
    <diagram id="dwnv-cftggyC9z6-0XXQ" name="Page-1">
        <mxGraphModel dx="785" dy="795" grid="1" gridSize="10" guides="1" tooltips="1" connect="1" arrows="1" fold="1" page="1" pageScale="1" pageWidth="850" pageHeight="1100" math="0" shadow="0">
            <root>
                <mxCell id="0"/>
                <mxCell id="1" parent="0"/>
                <mxCell id="2" value="driveMetropolis()" style="rounded=1;whiteSpace=wrap;html=1;" parent="1" vertex="1">
                    <mxGeometry x="140" y="310" width="120" height="30" as="geometry"/>
                </mxCell>
                <mxCell id="6" value="Hello" style="rounded=1;whiteSpace=wrap;html=1;" parent="1" vertex="1">
                    <mxGeometry x="430" y="470" width="120" height="60" as="geometry"/>
                </mxCell>
                <mxCell id="7" value="driveMetropolis()" style="rounded=1;whiteSpace=wrap;html=1;" parent="1" vertex="1">
                    <mxGeometry x="150" y="390" width="120" height="30" as="geometry"/>
                </mxCell>
                <mxCell id="8" value="made by jun()" style="rounded=1;whiteSpace=wrap;html=1;" parent="1" vertex="1">
                    <mxGeometry x="150" y="390" width="120" height="30" as="geometry"/>
                </mxCell>
                <mxCell id="9" value="made by jun()" style="rounded=1;whiteSpace=wrap;html=1;" parent="1" vertex="1">
                    <mxGeometry x="150" y="440" width="120" height="30" as="geometry"/>
                </mxCell>
                <mxCell id="10" value="getBasicSites()" style="rounded=1;whiteSpace=wrap;html=1;" parent="1" vertex="1">
                    <mxGeometry x="140" y="310" width="120" height="30" as="geometry"/>
                </mxCell>
                <mxCell id="11" value="initializePhosphorylatedSites()" style="rounded=1;whiteSpace=wrap;html=1;" parent="1" vertex="1">
                    <mxGeometry x="390" y="250" width="120" height="30" as="geometry"/>
                </mxCell>
                <mxCell id="12" value="initializeStiffSites()" style="rounded=1;whiteSpace=wrap;html=1;" parent="1" vertex="1">
                    <mxGeometry x="140" y="310" width="120" height="30" as="geometry"/>
                </mxCell>
                <mxCell id="13" value="metropolisJoint.c" style="rounded=1;whiteSpace=wrap;html=1;" parent="1" vertex="1">
                    <mxGeometry x="140" y="310" width="120" height="30" as="geometry"/>
                </mxCell>
                <mxCell id="14" value="metropolisJoint()" style="rounded=1;whiteSpace=wrap;html=1;" parent="1" vertex="1">
                    <mxGeometry x="140" y="310" width="120" height="30" as="geometry"/>
                </mxCell>
                <mxCell id="15" value="stationarity()" style="rounded=1;whiteSpace=wrap;html=1;" parent="1" vertex="1">
                    <mxGeometry x="140" y="310" width="120" height="30" as="geometry"/>
                </mxCell>
                <mxCell id="16" value="appendBins()" style="rounded=1;whiteSpace=wrap;html=1;" parent="1" vertex="1">
                    <mxGeometry x="140" y="310" width="120" height="30" as="geometry"/>
                </mxCell>
                <mxCell id="17" value="rotate()" style="rounded=1;whiteSpace=wrap;html=1;" parent="1" vertex="1">
                    <mxGeometry x="140" y="310" width="120" height="30" as="geometry"/>
                </mxCell>
                <mxCell id="18" value="outputControl.c" style="rounded=1;whiteSpace=wrap;html=1;" parent="1" vertex="1">
                    <mxGeometry x="140" y="310" width="120" height="30" as="geometry"/>
                </mxCell>
                <mxCell id="19" value="initializeSummary()" style="rounded=1;whiteSpace=wrap;html=1;" parent="1" vertex="1">
                    <mxGeometry x="140" y="310" width="120" height="30" as="geometry"/>
                </mxCell>
                <mxCell id="20" value="finalizeSummary()" style="rounded=1;whiteSpace=wrap;html=1;" parent="1" vertex="1">
                    <mxGeometry x="140" y="310" width="120" height="30" as="geometry"/>
                </mxCell>
                <mxCell id="21" value="dataRecording()" style="rounded=1;whiteSpace=wrap;html=1;" parent="1" vertex="1">
                    <mxGeometry x="140" y="310" width="120" height="30" as="geometry"/>
                </mxCell>
                <mxCell id="22" value="twister.c" style="rounded=1;whiteSpace=wrap;html=1;" parent="1" vertex="1">
                    <mxGeometry x="140" y="310" width="120" height="30" as="geometry"/>
                </mxCell>
                <mxCell id="23" value="wrapper.m" style="rounded=1;whiteSpace=wrap;html=1;" parent="1" vertex="1">
                    <mxGeometry x="350" y="300" width="120" height="30" as="geometry"/>
                </mxCell>
                <mxCell id="24" value="ExampleHPC.pub" style="rounded=1;whiteSpace=wrap;html=1;" parent="1" vertex="1">
                    <mxGeometry x="510" y="70" width="120" height="30" as="geometry"/>
                </mxCell>
                <mxCell id="25" value="catFiles.sh" style="rounded=1;whiteSpace=wrap;html=1;" parent="1" vertex="1">
                    <mxGeometry x="160" y="80" width="120" height="30" as="geometry"/>
                </mxCell>
                <mxCell id="26" value="copyCatFiles.sh" style="rounded=1;whiteSpace=wrap;html=1;" parent="1" vertex="1">
                    <mxGeometry x="160" y="250" width="120" height="30" as="geometry"/>
                </mxCell>
                <mxCell id="27" value="makePubs.pl" style="rounded=1;whiteSpace=wrap;html=1;" parent="1" vertex="1">
                    <mxGeometry x="170" y="180" width="120" height="30" as="geometry"/>
                </mxCell>
                <mxCell id="28" value="makePubsReadTxtFile.pl" style="rounded=1;whiteSpace=wrap;html=1;" parent="1" vertex="1">
                    <mxGeometry x="365" y="200" width="120" height="30" as="geometry"/>
                </mxCell>
                <mxCell id="29" value="makePubsRealFormins.pl" style="rounded=1;whiteSpace=wrap;html=1;" parent="1" vertex="1">
                    <mxGeometry x="425" y="370" width="120" height="30" as="geometry"/>
                </mxCell>
                <mxCell id="30" value="submit.pl" style="rounded=1;whiteSpace=wrap;html=1;" parent="1" vertex="1">
                    <mxGeometry x="280" y="510" width="120" height="30" as="geometry"/>
                </mxCell>
                <mxCell id="31" value="submitReadTxtFile.pl" style="rounded=1;whiteSpace=wrap;html=1;" parent="1" vertex="1">
                    <mxGeometry x="270" y="630" width="120" height="30" as="geometry"/>
                </mxCell>
                <mxCell id="32" value="submitRealFormins.pl" style="rounded=1;whiteSpace=wrap;html=1;" parent="1" vertex="1">
                    <mxGeometry x="270" y="830" width="120" height="30" as="geometry"/>
                </mxCell>
                <mxCell id="34" value="&lt;root&gt;&lt;mxCell id=&quot;6&quot; value=&quot;driveMetropolis()&quot; style=&quot;rounded=1;whiteSpace=wrap;html=1;&quot; vertex=&quot;1&quot; parent=&quot;1&quot;&gt;&lt;mxGeometry x=&quot;140&quot; y=&quot;310&quot; width=&quot;120&quot; height=&quot;30&quot; as_=&quot;geometry&quot; /&gt;&lt;/mxCell&gt;&lt;mxCell id=&quot;7&quot; value=&quot;getBasicSites()&quot; style=&quot;rounded=1;whiteSpace=wrap;html=1;&quot; vertex=&quot;1&quot; parent=&quot;1&quot;&gt;&lt;mxGeometry x=&quot;140&quot; y=&quot;310&quot; width=&quot;120&quot; height=&quot;30&quot; as_=&quot;geometry&quot; /&gt;&lt;/mxCell&gt;&lt;mxCell id=&quot;8&quot; value=&quot;getFilaments()&quot; style=&quot;rounded=1;whiteSpace=wrap;html=1;&quot; vertex=&quot;1&quot; parent=&quot;1&quot;&gt;&lt;mxGeometry x=&quot;140&quot; y=&quot;310&quot; width=&quot;120&quot; height=&quot;30&quot; as_=&quot;geometry&quot; /&gt;&lt;/mxCell&gt;&lt;mxCell id=&quot;9&quot; value=&quot;getParameters()&quot; style=&quot;rounded=1;whiteSpace=wrap;html=1;&quot; vertex=&quot;1&quot; parent=&quot;1&quot;&gt;&lt;mxGeometry x=&quot;140&quot; y=&quot;310&quot; width=&quot;120&quot; height=&quot;30&quot; as_=&quot;geometry&quot; /&gt;&lt;/mxCell&gt;&lt;mxCell id=&quot;10&quot; value=&quot;getSites()&quot; style=&quot;rounded=1;whiteSpace=wrap;html=1;&quot; vertex=&quot;1&quot; parent=&quot;1&quot;&gt;&lt;mxGeometry x=&quot;140&quot; y=&quot;310&quot; width=&quot;120&quot; height=&quot;30&quot; as_=&quot;geometry&quot; /&gt;&lt;/mxCell&gt;&lt;mxCell id=&quot;11&quot; value=&quot;initializePhosphorylatedSites()&quot; style=&quot;rounded=1;whiteSpace=wrap;html=1;&quot; vertex=&quot;1&quot; parent=&quot;1&quot;&gt;&lt;mxGeometry x=&quot;140&quot; y=&quot;310&quot; width=&quot;120&quot; height=&quot;30&quot; as_=&quot;geometry&quot; /&gt;&lt;/mxCell&gt;&lt;mxCell id=&quot;12&quot; value=&quot;initializeStiffSites()&quot; style=&quot;rounded=1;whiteSpace=wrap;html=1;&quot; vertex=&quot;1&quot; parent=&quot;1&quot;&gt;&lt;mxGeometry x=&quot;140&quot; y=&quot;310&quot; width=&quot;120&quot; height=&quot;30&quot; as_=&quot;geometry&quot; /&gt;&lt;/mxCell&gt;&lt;mxCell id=&quot;13&quot; value=&quot;metropolisJoint.c&quot; style=&quot;rounded=1;whiteSpace=wrap;html=1;&quot; vertex=&quot;1&quot; parent=&quot;1&quot;&gt;&lt;mxGeometry x=&quot;140&quot; y=&quot;310&quot; width=&quot;120&quot; height=&quot;30&quot; as_=&quot;geometry&quot; /&gt;&lt;/mxCell&gt;&lt;mxCell id=&quot;14&quot; value=&quot;metropolisJoint()&quot; style=&quot;rounded=1;whiteSpace=wrap;html=1;&quot; vertex=&quot;1&quot; parent=&quot;1&quot;&gt;&lt;mxGeometry x=&quot;140&quot; y=&quot;310&quot; width=&quot;120&quot; height=&quot;30&quot; as_=&quot;geometry&quot; /&gt;&lt;/mxCell&gt;&lt;mxCell id=&quot;15&quot; value=&quot;stationarity()&quot; style=&quot;rounded=1;whiteSpace=wrap;html=1;&quot; vertex=&quot;1&quot; parent=&quot;1&quot;&gt;&lt;mxGeometry x=&quot;140&quot; y=&quot;310&quot; width=&quot;120&quot; height=&quot;30&quot; as_=&quot;geometry&quot; /&gt;&lt;/mxCell&gt;&lt;mxCell id=&quot;16&quot; value=&quot;appendBins()&quot; style=&quot;rounded=1;whiteSpace=wrap;html=1;&quot; vertex=&quot;1&quot; parent=&quot;1&quot;&gt;&lt;mxGeometry x=&quot;140&quot; y=&quot;310&quot; width=&quot;120&quot; height=&quot;30&quot; as_=&quot;geometry&quot; /&gt;&lt;/mxCell&gt;&lt;mxCell id=&quot;17&quot; value=&quot;rotate()&quot; style=&quot;rounded=1;whiteSpace=wrap;html=1;&quot; vertex=&quot;1&quot; parent=&quot;1&quot;&gt;&lt;mxGeometry x=&quot;140&quot; y=&quot;310&quot; width=&quot;120&quot; height=&quot;30&quot; as_=&quot;geometry&quot; /&gt;&lt;/mxCell&gt;&lt;mxCell id=&quot;18&quot; value=&quot;outputControl.c&quot; style=&quot;rounded=1;whiteSpace=wrap;html=1;&quot; vertex=&quot;1&quot; parent=&quot;1&quot;&gt;&lt;mxGeometry x=&quot;140&quot; y=&quot;310&quot; width=&quot;120&quot; height=&quot;30&quot; as_=&quot;geometry&quot; /&gt;&lt;/mxCell&gt;&lt;mxCell id=&quot;19&quot; value=&quot;initializeSummary()&quot; style=&quot;rounded=1;whiteSpace=wrap;html=1;&quot; vertex=&quot;1&quot; parent=&quot;1&quot;&gt;&lt;mxGeometry x=&quot;140&quot; y=&quot;310&quot; width=&quot;120&quot; height=&quot;30&quot; as_=&quot;geometry&quot; /&gt;&lt;/mxCell&gt;&lt;mxCell id=&quot;20&quot; value=&quot;finalizeSummary()&quot; style=&quot;rounded=1;whiteSpace=wrap;html=1;&quot; vertex=&quot;1&quot; parent=&quot;1&quot;&gt;&lt;mxGeometry x=&quot;140&quot; y=&quot;310&quot; width=&quot;120&quot; height=&quot;30&quot; as_=&quot;geometry&quot; /&gt;&lt;/mxCell&gt;&lt;mxCell id=&quot;21&quot; value=&quot;dataRecording()&quot; style=&quot;rounded=1;whiteSpace=wrap;html=1;&quot; vertex=&quot;1&quot; parent=&quot;1&quot;&gt;&lt;mxGeometry x=&quot;140&quot; y=&quot;310&quot; width=&quot;120&quot; height=&quot;30&quot; as_=&quot;geometry&quot; /&gt;&lt;/mxCell&gt;&lt;mxCell id=&quot;22&quot; value=&quot;twister.c&quot; style=&quot;rounded=1;whiteSpace=wrap;html=1;&quot; vertex=&quot;1&quot; parent=&quot;1&quot;&gt;&lt;mxGeometry x=&quot;140&quot; y=&quot;310&quot; width=&quot;120&quot; height=&quot;30&quot; as_=&quot;geometry&quot; /&gt;&lt;/mxCell&gt;&lt;mxCell id=&quot;23&quot; value=&quot;wrapper.m&quot; style=&quot;rounded=1;whiteSpace=wrap;html=1;&quot; vertex=&quot;1&quot; parent=&quot;1&quot;&gt;&lt;mxGeometry x=&quot;140&quot; y=&quot;310&quot; width=&quot;120&quot; height=&quot;30&quot; as_=&quot;geometry&quot; /&gt;&lt;/mxCell&gt;&lt;mxCell id=&quot;24&quot; value=&quot;ExampleHPC.pub&quot; style=&quot;rounded=1;whiteSpace=wrap;html=1;&quot; vertex=&quot;1&quot; parent=&quot;1&quot;&gt;&lt;mxGeometry x=&quot;140&quot; y=&quot;310&quot; width=&quot;120&quot; height=&quot;30&quot; as_=&quot;geometry&quot; /&gt;&lt;/mxCell&gt;&lt;mxCell id=&quot;25&quot; value=&quot;catFiles.sh&quot; style=&quot;rounded=1;whiteSpace=wrap;html=1;&quot; vertex=&quot;1&quot; parent=&quot;1&quot;&gt;&lt;mxGeometry x=&quot;140&quot; y=&quot;310&quot; width=&quot;120&quot; height=&quot;30&quot; as_=&quot;geometry&quot; /&gt;&lt;/mxCell&gt;&lt;mxCell id=&quot;26&quot; value=&quot;copyCatFiles.sh&quot; style=&quot;rounded=1;whiteSpace=wrap;html=1;&quot; vertex=&quot;1&quot; parent=&quot;1&quot;&gt;&lt;mxGeometry x=&quot;140&quot; y=&quot;310&quot; width=&quot;120&quot; height=&quot;30&quot; as_=&quot;geometry&quot; /&gt;&lt;/mxCell&gt;&lt;mxCell id=&quot;27&quot; value=&quot;makePubs.pl&quot; style=&quot;rounded=1;whiteSpace=wrap;html=1;&quot; vertex=&quot;1&quot; parent=&quot;1&quot;&gt;&lt;mxGeometry x=&quot;140&quot; y=&quot;310&quot; width=&quot;120&quot; height=&quot;30&quot; as_=&quot;geometry&quot; /&gt;&lt;/mxCell&gt;&lt;mxCell id=&quot;28&quot; value=&quot;makePubsReadTxtFile.pl&quot; style=&quot;rounded=1;whiteSpace=wrap;html=1;&quot; vertex=&quot;1&quot; parent=&quot;1&quot;&gt;&lt;mxGeometry x=&quot;140&quot; y=&quot;310&quot; width=&quot;120&quot; height=&quot;30&quot; as_=&quot;geometry&quot; /&gt;&lt;/mxCell&gt;&lt;mxCell id=&quot;29&quot; value=&quot;makePubsRealFormins.pl&quot; style=&quot;rounded=1;whiteSpace=wrap;html=1;&quot; vertex=&quot;1&quot; parent=&quot;1&quot;&gt;&lt;mxGeometry x=&quot;140&quot; y=&quot;310&quot; width=&quot;120&quot; height=&quot;30&quot; as_=&quot;geometry&quot; /&gt;&lt;/mxCell&gt;&lt;mxCell id=&quot;30&quot; value=&quot;submit.pl&quot; style=&quot;rounded=1;whiteSpace=wrap;html=1;&quot; vertex=&quot;1&quot; parent=&quot;1&quot;&gt;&lt;mxGeometry x=&quot;140&quot; y=&quot;310&quot; width=&quot;120&quot; height=&quot;30&quot; as_=&quot;geometry&quot; /&gt;&lt;/mxCell&gt;&lt;mxCell id=&quot;31&quot; value=&quot;submitReadTxtFile.pl&quot; style=&quot;rounded=1;whiteSpace=wrap;html=1;&quot; vertex=&quot;1&quot; parent=&quot;1&quot;&gt;&lt;mxGeometry x=&quot;140&quot; y=&quot;310&quot; width=&quot;120&quot; height=&quot;30&quot; as_=&quot;geometry&quot; /&gt;&lt;/mxCell&gt;&lt;mxCell id=&quot;32&quot; value=&quot;submitRealFormins.pl&quot; style=&quot;rounded=1;whiteSpace=wrap;html=1;&quot; vertex=&quot;1&quot; parent=&quot;1&quot;&gt;&lt;mxGeometry x=&quot;140&quot; y=&quot;310&quot; width=&quot;120&quot; height=&quot;30&quot; as_=&quot;geometry&quot; /&gt;&lt;/mxCell&gt;&lt;mxCell id=&quot;33&quot; value=&quot;waffle&quot; style=&quot;rounded=1;whiteSpace=wrap;html=1;&quot; vertex=&quot;1&quot; parent=&quot;1&quot;&gt;&lt;mxGeometry x=&quot;140&quot; y=&quot;310&quot; width=&quot;120&quot; height=&quot;30&quot; as_=&quot;geometry&quot; /&gt;&lt;/mxCell&gt;&lt;/root&gt;" style="text;whiteSpace=wrap;html=1;" vertex="1" parent="1">
                    <mxGeometry width="60" height="50" as="geometry"/>
                </mxCell>
                <mxCell id="35" value="&lt;root&gt;&lt;mxCell id=&quot;6&quot; value=&quot;driveMetropolis()&quot; style=&quot;rounded=1;whiteSpace=wrap;html=1;&quot; vertex=&quot;1&quot; parent=&quot;1&quot;&gt;&lt;mxGeometry x=&quot;140&quot; y=&quot;310&quot; width=&quot;120&quot; height=&quot;30&quot; as_=&quot;geometry&quot; /&gt;&lt;/mxCell&gt;&lt;mxCell id=&quot;7&quot; value=&quot;getBasicSites()&quot; style=&quot;rounded=1;whiteSpace=wrap;html=1;&quot; vertex=&quot;1&quot; parent=&quot;1&quot;&gt;&lt;mxGeometry x=&quot;140&quot; y=&quot;310&quot; width=&quot;120&quot; height=&quot;30&quot; as_=&quot;geometry&quot; /&gt;&lt;/mxCell&gt;&lt;mxCell id=&quot;8&quot; value=&quot;getFilaments()&quot; style=&quot;rounded=1;whiteSpace=wrap;html=1;&quot; vertex=&quot;1&quot; parent=&quot;1&quot;&gt;&lt;mxGeometry x=&quot;140&quot; y=&quot;310&quot; width=&quot;120&quot; height=&quot;30&quot; as_=&quot;geometry&quot; /&gt;&lt;/mxCell&gt;&lt;mxCell id=&quot;9&quot; value=&quot;getParameters()&quot; style=&quot;rounded=1;whiteSpace=wrap;html=1;&quot; vertex=&quot;1&quot; parent=&quot;1&quot;&gt;&lt;mxGeometry x=&quot;140&quot; y=&quot;310&quot; width=&quot;120&quot; height=&quot;30&quot; as_=&quot;geometry&quot; /&gt;&lt;/mxCell&gt;&lt;mxCell id=&quot;10&quot; value=&quot;getSites()&quot; style=&quot;rounded=1;whiteSpace=wrap;html=1;&quot; vertex=&quot;1&quot; parent=&quot;1&quot;&gt;&lt;mxGeometry x=&quot;140&quot; y=&quot;310&quot; width=&quot;120&quot; height=&quot;30&quot; as_=&quot;geometry&quot; /&gt;&lt;/mxCell&gt;&lt;mxCell id=&quot;11&quot; value=&quot;initializePhosphorylatedSites()&quot; style=&quot;rounded=1;whiteSpace=wrap;html=1;&quot; vertex=&quot;1&quot; parent=&quot;1&quot;&gt;&lt;mxGeometry x=&quot;140&quot; y=&quot;310&quot; width=&quot;120&quot; height=&quot;30&quot; as_=&quot;geometry&quot; /&gt;&lt;/mxCell&gt;&lt;mxCell id=&quot;12&quot; value=&quot;initializeStiffSites()&quot; style=&quot;rounded=1;whiteSpace=wrap;html=1;&quot; vertex=&quot;1&quot; parent=&quot;1&quot;&gt;&lt;mxGeometry x=&quot;140&quot; y=&quot;310&quot; width=&quot;120&quot; height=&quot;30&quot; as_=&quot;geometry&quot; /&gt;&lt;/mxCell&gt;&lt;mxCell id=&quot;13&quot; value=&quot;metropolisJoint.c&quot; style=&quot;rounded=1;whiteSpace=wrap;html=1;&quot; vertex=&quot;1&quot; parent=&quot;1&quot;&gt;&lt;mxGeometry x=&quot;140&quot; y=&quot;310&quot; width=&quot;120&quot; height=&quot;30&quot; as_=&quot;geometry&quot; /&gt;&lt;/mxCell&gt;&lt;mxCell id=&quot;14&quot; value=&quot;metropolisJoint()&quot; style=&quot;rounded=1;whiteSpace=wrap;html=1;&quot; vertex=&quot;1&quot; parent=&quot;1&quot;&gt;&lt;mxGeometry x=&quot;140&quot; y=&quot;310&quot; width=&quot;120&quot; height=&quot;30&quot; as_=&quot;geometry&quot; /&gt;&lt;/mxCell&gt;&lt;mxCell id=&quot;15&quot; value=&quot;stationarity()&quot; style=&quot;rounded=1;whiteSpace=wrap;html=1;&quot; vertex=&quot;1&quot; parent=&quot;1&quot;&gt;&lt;mxGeometry x=&quot;140&quot; y=&quot;310&quot; width=&quot;120&quot; height=&quot;30&quot; as_=&quot;geometry&quot; /&gt;&lt;/mxCell&gt;&lt;mxCell id=&quot;16&quot; value=&quot;appendBins()&quot; style=&quot;rounded=1;whiteSpace=wrap;html=1;&quot; vertex=&quot;1&quot; parent=&quot;1&quot;&gt;&lt;mxGeometry x=&quot;140&quot; y=&quot;310&quot; width=&quot;120&quot; height=&quot;30&quot; as_=&quot;geometry&quot; /&gt;&lt;/mxCell&gt;&lt;mxCell id=&quot;17&quot; value=&quot;rotate()&quot; style=&quot;rounded=1;whiteSpace=wrap;html=1;&quot; vertex=&quot;1&quot; parent=&quot;1&quot;&gt;&lt;mxGeometry x=&quot;140&quot; y=&quot;310&quot; width=&quot;120&quot; height=&quot;30&quot; as_=&quot;geometry&quot; /&gt;&lt;/mxCell&gt;&lt;mxCell id=&quot;18&quot; value=&quot;outputControl.c&quot; style=&quot;rounded=1;whiteSpace=wrap;html=1;&quot; vertex=&quot;1&quot; parent=&quot;1&quot;&gt;&lt;mxGeometry x=&quot;140&quot; y=&quot;310&quot; width=&quot;120&quot; height=&quot;30&quot; as_=&quot;geometry&quot; /&gt;&lt;/mxCell&gt;&lt;mxCell id=&quot;19&quot; value=&quot;initializeSummary()&quot; style=&quot;rounded=1;whiteSpace=wrap;html=1;&quot; vertex=&quot;1&quot; parent=&quot;1&quot;&gt;&lt;mxGeometry x=&quot;140&quot; y=&quot;310&quot; width=&quot;120&quot; height=&quot;30&quot; as_=&quot;geometry&quot; /&gt;&lt;/mxCell&gt;&lt;mxCell id=&quot;20&quot; value=&quot;finalizeSummary()&quot; style=&quot;rounded=1;whiteSpace=wrap;html=1;&quot; vertex=&quot;1&quot; parent=&quot;1&quot;&gt;&lt;mxGeometry x=&quot;140&quot; y=&quot;310&quot; width=&quot;120&quot; height=&quot;30&quot; as_=&quot;geometry&quot; /&gt;&lt;/mxCell&gt;&lt;mxCell id=&quot;21&quot; value=&quot;dataRecording()&quot; style=&quot;rounded=1;whiteSpace=wrap;html=1;&quot; vertex=&quot;1&quot; parent=&quot;1&quot;&gt;&lt;mxGeometry x=&quot;140&quot; y=&quot;310&quot; width=&quot;120&quot; height=&quot;30&quot; as_=&quot;geometry&quot; /&gt;&lt;/mxCell&gt;&lt;mxCell id=&quot;22&quot; value=&quot;twister.c&quot; style=&quot;rounded=1;whiteSpace=wrap;html=1;&quot; vertex=&quot;1&quot; parent=&quot;1&quot;&gt;&lt;mxGeometry x=&quot;140&quot; y=&quot;310&quot; width=&quot;120&quot; height=&quot;30&quot; as_=&quot;geometry&quot; /&gt;&lt;/mxCell&gt;&lt;mxCell id=&quot;23&quot; value=&quot;wrapper.m&quot; style=&quot;rounded=1;whiteSpace=wrap;html=1;&quot; vertex=&quot;1&quot; parent=&quot;1&quot;&gt;&lt;mxGeometry x=&quot;140&quot; y=&quot;310&quot; width=&quot;120&quot; height=&quot;30&quot; as_=&quot;geometry&quot; /&gt;&lt;/mxCell&gt;&lt;mxCell id=&quot;24&quot; value=&quot;ExampleHPC.pub&quot; style=&quot;rounded=1;whiteSpace=wrap;html=1;&quot; vertex=&quot;1&quot; parent=&quot;1&quot;&gt;&lt;mxGeometry x=&quot;140&quot; y=&quot;310&quot; width=&quot;120&quot; height=&quot;30&quot; as_=&quot;geometry&quot; /&gt;&lt;/mxCell&gt;&lt;mxCell id=&quot;25&quot; value=&quot;catFiles.sh&quot; style=&quot;rounded=1;whiteSpace=wrap;html=1;&quot; vertex=&quot;1&quot; parent=&quot;1&quot;&gt;&lt;mxGeometry x=&quot;140&quot; y=&quot;310&quot; width=&quot;120&quot; height=&quot;30&quot; as_=&quot;geometry&quot; /&gt;&lt;/mxCell&gt;&lt;mxCell id=&quot;26&quot; value=&quot;copyCatFiles.sh&quot; style=&quot;rounded=1;whiteSpace=wrap;html=1;&quot; vertex=&quot;1&quot; parent=&quot;1&quot;&gt;&lt;mxGeometry x=&quot;140&quot; y=&quot;310&quot; width=&quot;120&quot; height=&quot;30&quot; as_=&quot;geometry&quot; /&gt;&lt;/mxCell&gt;&lt;mxCell id=&quot;27&quot; value=&quot;makePubs.pl&quot; style=&quot;rounded=1;whiteSpace=wrap;html=1;&quot; vertex=&quot;1&quot; parent=&quot;1&quot;&gt;&lt;mxGeometry x=&quot;140&quot; y=&quot;310&quot; width=&quot;120&quot; height=&quot;30&quot; as_=&quot;geometry&quot; /&gt;&lt;/mxCell&gt;&lt;mxCell id=&quot;28&quot; value=&quot;makePubsReadTxtFile.pl&quot; style=&quot;rounded=1;whiteSpace=wrap;html=1;&quot; vertex=&quot;1&quot; parent=&quot;1&quot;&gt;&lt;mxGeometry x=&quot;140&quot; y=&quot;310&quot; width=&quot;120&quot; height=&quot;30&quot; as_=&quot;geometry&quot; /&gt;&lt;/mxCell&gt;&lt;mxCell id=&quot;29&quot; value=&quot;makePubsRealFormins.pl&quot; style=&quot;rounded=1;whiteSpace=wrap;html=1;&quot; vertex=&quot;1&quot; parent=&quot;1&quot;&gt;&lt;mxGeometry x=&quot;140&quot; y=&quot;310&quot; width=&quot;120&quot; height=&quot;30&quot; as_=&quot;geometry&quot; /&gt;&lt;/mxCell&gt;&lt;mxCell id=&quot;30&quot; value=&quot;submit.pl&quot; style=&quot;rounded=1;whiteSpace=wrap;html=1;&quot; vertex=&quot;1&quot; parent=&quot;1&quot;&gt;&lt;mxGeometry x=&quot;140&quot; y=&quot;310&quot; width=&quot;120&quot; height=&quot;30&quot; as_=&quot;geometry&quot; /&gt;&lt;/mxCell&gt;&lt;mxCell id=&quot;31&quot; value=&quot;submitReadTxtFile.pl&quot; style=&quot;rounded=1;whiteSpace=wrap;html=1;&quot; vertex=&quot;1&quot; parent=&quot;1&quot;&gt;&lt;mxGeometry x=&quot;140&quot; y=&quot;310&quot; width=&quot;120&quot; height=&quot;30&quot; as_=&quot;geometry&quot; /&gt;&lt;/mxCell&gt;&lt;mxCell id=&quot;32&quot; value=&quot;submitRealFormins.pl&quot; style=&quot;rounded=1;whiteSpace=wrap;html=1;&quot; vertex=&quot;1&quot; parent=&quot;1&quot;&gt;&lt;mxGeometry x=&quot;140&quot; y=&quot;310&quot; width=&quot;120&quot; height=&quot;30&quot; as_=&quot;geometry&quot; /&gt;&lt;/mxCell&gt;&lt;mxCell id=&quot;33&quot; value=&quot;waffle&quot; style=&quot;rounded=1;whiteSpace=wrap;html=1;&quot; vertex=&quot;1&quot; parent=&quot;1&quot;&gt;&lt;mxGeometry x=&quot;140&quot; y=&quot;310&quot; width=&quot;120&quot; height=&quot;30&quot; as_=&quot;geometry&quot; /&gt;&lt;/mxCell&gt;&lt;/root&gt;" style="text;whiteSpace=wrap;html=1;" vertex="1" parent="1">
                    <mxGeometry width="130" height="100" as="geometry"/>
                </mxCell>
                <mxCell id="36" value="&lt;root&gt;&lt;mxCell id=&quot;6&quot; value=&quot;driveMetropolis()&quot; style=&quot;rounded=1;whiteSpace=wrap;html=1;&quot; vertex=&quot;1&quot; parent=&quot;1&quot;&gt;&lt;mxGeometry x=&quot;140&quot; y=&quot;310&quot; width=&quot;120&quot; height=&quot;30&quot; as_=&quot;geometry&quot; /&gt;&lt;/mxCell&gt;&lt;mxCell id=&quot;7&quot; value=&quot;getBasicSites()&quot; style=&quot;rounded=1;whiteSpace=wrap;html=1;&quot; vertex=&quot;1&quot; parent=&quot;1&quot;&gt;&lt;mxGeometry x=&quot;140&quot; y=&quot;310&quot; width=&quot;120&quot; height=&quot;30&quot; as_=&quot;geometry&quot; /&gt;&lt;/mxCell&gt;&lt;mxCell id=&quot;8&quot; value=&quot;getFilaments()&quot; style=&quot;rounded=1;whiteSpace=wrap;html=1;&quot; vertex=&quot;1&quot; parent=&quot;1&quot;&gt;&lt;mxGeometry x=&quot;140&quot; y=&quot;310&quot; width=&quot;120&quot; height=&quot;30&quot; as_=&quot;geometry&quot; /&gt;&lt;/mxCell&gt;&lt;mxCell id=&quot;9&quot; value=&quot;getParameters()&quot; style=&quot;rounded=1;whiteSpace=wrap;html=1;&quot; vertex=&quot;1&quot; parent=&quot;1&quot;&gt;&lt;mxGeometry x=&quot;140&quot; y=&quot;310&quot; width=&quot;120&quot; height=&quot;30&quot; as_=&quot;geometry&quot; /&gt;&lt;/mxCell&gt;&lt;mxCell id=&quot;10&quot; value=&quot;getSites()&quot; style=&quot;rounded=1;whiteSpace=wrap;html=1;&quot; vertex=&quot;1&quot; parent=&quot;1&quot;&gt;&lt;mxGeometry x=&quot;140&quot; y=&quot;310&quot; width=&quot;120&quot; height=&quot;30&quot; as_=&quot;geometry&quot; /&gt;&lt;/mxCell&gt;&lt;mxCell id=&quot;11&quot; value=&quot;initializePhosphorylatedSites()&quot; style=&quot;rounded=1;whiteSpace=wrap;html=1;&quot; vertex=&quot;1&quot; parent=&quot;1&quot;&gt;&lt;mxGeometry x=&quot;140&quot; y=&quot;310&quot; width=&quot;120&quot; height=&quot;30&quot; as_=&quot;geometry&quot; /&gt;&lt;/mxCell&gt;&lt;mxCell id=&quot;12&quot; value=&quot;initializeStiffSites()&quot; style=&quot;rounded=1;whiteSpace=wrap;html=1;&quot; vertex=&quot;1&quot; parent=&quot;1&quot;&gt;&lt;mxGeometry x=&quot;140&quot; y=&quot;310&quot; width=&quot;120&quot; height=&quot;30&quot; as_=&quot;geometry&quot; /&gt;&lt;/mxCell&gt;&lt;mxCell id=&quot;13&quot; value=&quot;metropolisJoint.c&quot; style=&quot;rounded=1;whiteSpace=wrap;html=1;&quot; vertex=&quot;1&quot; parent=&quot;1&quot;&gt;&lt;mxGeometry x=&quot;140&quot; y=&quot;310&quot; width=&quot;120&quot; height=&quot;30&quot; as_=&quot;geometry&quot; /&gt;&lt;/mxCell&gt;&lt;mxCell id=&quot;14&quot; value=&quot;metropolisJoint()&quot; style=&quot;rounded=1;whiteSpace=wrap;html=1;&quot; vertex=&quot;1&quot; parent=&quot;1&quot;&gt;&lt;mxGeometry x=&quot;140&quot; y=&quot;310&quot; width=&quot;120&quot; height=&quot;30&quot; as_=&quot;geometry&quot; /&gt;&lt;/mxCell&gt;&lt;mxCell id=&quot;15&quot; value=&quot;stationarity()&quot; style=&quot;rounded=1;whiteSpace=wrap;html=1;&quot; vertex=&quot;1&quot; parent=&quot;1&quot;&gt;&lt;mxGeometry x=&quot;140&quot; y=&quot;310&quot; width=&quot;120&quot; height=&quot;30&quot; as_=&quot;geometry&quot; /&gt;&lt;/mxCell&gt;&lt;mxCell id=&quot;16&quot; value=&quot;appendBins()&quot; style=&quot;rounded=1;whiteSpace=wrap;html=1;&quot; vertex=&quot;1&quot; parent=&quot;1&quot;&gt;&lt;mxGeometry x=&quot;140&quot; y=&quot;310&quot; width=&quot;120&quot; height=&quot;30&quot; as_=&quot;geometry&quot; /&gt;&lt;/mxCell&gt;&lt;mxCell id=&quot;17&quot; value=&quot;rotate()&quot; style=&quot;rounded=1;whiteSpace=wrap;html=1;&quot; vertex=&quot;1&quot; parent=&quot;1&quot;&gt;&lt;mxGeometry x=&quot;140&quot; y=&quot;310&quot; width=&quot;120&quot; height=&quot;30&quot; as_=&quot;geometry&quot; /&gt;&lt;/mxCell&gt;&lt;mxCell id=&quot;18&quot; value=&quot;outputControl.c&quot; style=&quot;rounded=1;whiteSpace=wrap;html=1;&quot; vertex=&quot;1&quot; parent=&quot;1&quot;&gt;&lt;mxGeometry x=&quot;140&quot; y=&quot;310&quot; width=&quot;120&quot; height=&quot;30&quot; as_=&quot;geometry&quot; /&gt;&lt;/mxCell&gt;&lt;mxCell id=&quot;19&quot; value=&quot;initializeSummary()&quot; style=&quot;rounded=1;whiteSpace=wrap;html=1;&quot; vertex=&quot;1&quot; parent=&quot;1&quot;&gt;&lt;mxGeometry x=&quot;140&quot; y=&quot;310&quot; width=&quot;120&quot; height=&quot;30&quot; as_=&quot;geometry&quot; /&gt;&lt;/mxCell&gt;&lt;mxCell id=&quot;20&quot; value=&quot;finalizeSummary()&quot; style=&quot;rounded=1;whiteSpace=wrap;html=1;&quot; vertex=&quot;1&quot; parent=&quot;1&quot;&gt;&lt;mxGeometry x=&quot;140&quot; y=&quot;310&quot; width=&quot;120&quot; height=&quot;30&quot; as_=&quot;geometry&quot; /&gt;&lt;/mxCell&gt;&lt;mxCell id=&quot;21&quot; value=&quot;dataRecording()&quot; style=&quot;rounded=1;whiteSpace=wrap;html=1;&quot; vertex=&quot;1&quot; parent=&quot;1&quot;&gt;&lt;mxGeometry x=&quot;140&quot; y=&quot;310&quot; width=&quot;120&quot; height=&quot;30&quot; as_=&quot;geometry&quot; /&gt;&lt;/mxCell&gt;&lt;mxCell id=&quot;22&quot; value=&quot;twister.c&quot; style=&quot;rounded=1;whiteSpace=wrap;html=1;&quot; vertex=&quot;1&quot; parent=&quot;1&quot;&gt;&lt;mxGeometry x=&quot;140&quot; y=&quot;310&quot; width=&quot;120&quot; height=&quot;30&quot; as_=&quot;geometry&quot; /&gt;&lt;/mxCell&gt;&lt;mxCell id=&quot;23&quot; value=&quot;wrapper.m&quot; style=&quot;rounded=1;whiteSpace=wrap;html=1;&quot; vertex=&quot;1&quot; parent=&quot;1&quot;&gt;&lt;mxGeometry x=&quot;140&quot; y=&quot;310&quot; width=&quot;120&quot; height=&quot;30&quot; as_=&quot;geometry&quot; /&gt;&lt;/mxCell&gt;&lt;mxCell id=&quot;24&quot; value=&quot;ExampleHPC.pub&quot; style=&quot;rounded=1;whiteSpace=wrap;html=1;&quot; vertex=&quot;1&quot; parent=&quot;1&quot;&gt;&lt;mxGeometry x=&quot;140&quot; y=&quot;310&quot; width=&quot;120&quot; height=&quot;30&quot; as_=&quot;geometry&quot; /&gt;&lt;/mxCell&gt;&lt;mxCell id=&quot;25&quot; value=&quot;catFiles.sh&quot; style=&quot;rounded=1;whiteSpace=wrap;html=1;&quot; vertex=&quot;1&quot; parent=&quot;1&quot;&gt;&lt;mxGeometry x=&quot;140&quot; y=&quot;310&quot; width=&quot;120&quot; height=&quot;30&quot; as_=&quot;geometry&quot; /&gt;&lt;/mxCell&gt;&lt;mxCell id=&quot;26&quot; value=&quot;copyCatFiles.sh&quot; style=&quot;rounded=1;whiteSpace=wrap;html=1;&quot; vertex=&quot;1&quot; parent=&quot;1&quot;&gt;&lt;mxGeometry x=&quot;140&quot; y=&quot;310&quot; width=&quot;120&quot; height=&quot;30&quot; as_=&quot;geometry&quot; /&gt;&lt;/mxCell&gt;&lt;mxCell id=&quot;27&quot; value=&quot;makePubs.pl&quot; style=&quot;rounded=1;whiteSpace=wrap;html=1;&quot; vertex=&quot;1&quot; parent=&quot;1&quot;&gt;&lt;mxGeometry x=&quot;140&quot; y=&quot;310&quot; width=&quot;120&quot; height=&quot;30&quot; as_=&quot;geometry&quot; /&gt;&lt;/mxCell&gt;&lt;mxCell id=&quot;28&quot; value=&quot;makePubsReadTxtFile.pl&quot; style=&quot;rounded=1;whiteSpace=wrap;html=1;&quot; vertex=&quot;1&quot; parent=&quot;1&quot;&gt;&lt;mxGeometry x=&quot;140&quot; y=&quot;310&quot; width=&quot;120&quot; height=&quot;30&quot; as_=&quot;geometry&quot; /&gt;&lt;/mxCell&gt;&lt;mxCell id=&quot;29&quot; value=&quot;makePubsRealFormins.pl&quot; style=&quot;rounded=1;whiteSpace=wrap;html=1;&quot; vertex=&quot;1&quot; parent=&quot;1&quot;&gt;&lt;mxGeometry x=&quot;140&quot; y=&quot;310&quot; width=&quot;120&quot; height=&quot;30&quot; as_=&quot;geometry&quot; /&gt;&lt;/mxCell&gt;&lt;mxCell id=&quot;30&quot; value=&quot;submit.pl&quot; style=&quot;rounded=1;whiteSpace=wrap;html=1;&quot; vertex=&quot;1&quot; parent=&quot;1&quot;&gt;&lt;mxGeometry x=&quot;140&quot; y=&quot;310&quot; width=&quot;120&quot; height=&quot;30&quot; as_=&quot;geometry&quot; /&gt;&lt;/mxCell&gt;&lt;mxCell id=&quot;31&quot; value=&quot;submitReadTxtFile.pl&quot; style=&quot;rounded=1;whiteSpace=wrap;html=1;&quot; vertex=&quot;1&quot; parent=&quot;1&quot;&gt;&lt;mxGeometry x=&quot;140&quot; y=&quot;310&quot; width=&quot;120&quot; height=&quot;30&quot; as_=&quot;geometry&quot; /&gt;&lt;/mxCell&gt;&lt;mxCell id=&quot;32&quot; value=&quot;submitRealFormins.pl&quot; style=&quot;rounded=1;whiteSpace=wrap;html=1;&quot; vertex=&quot;1&quot; parent=&quot;1&quot;&gt;&lt;mxGeometry x=&quot;140&quot; y=&quot;310&quot; width=&quot;120&quot; height=&quot;30&quot; as_=&quot;geometry&quot; /&gt;&lt;/mxCell&gt;&lt;mxCell id=&quot;33&quot; value=&quot;waffle&quot; style=&quot;rounded=1;whiteSpace=wrap;html=1;&quot; vertex=&quot;1&quot; parent=&quot;1&quot;&gt;&lt;mxGeometry x=&quot;140&quot; y=&quot;310&quot; width=&quot;120&quot; height=&quot;30&quot; as_=&quot;geometry&quot; /&gt;&lt;/mxCell&gt;&lt;/root&gt;" style="text;whiteSpace=wrap;html=1;" vertex="1" parent="1">
                    <mxGeometry x="40" y="190" width="60" height="50" as="geometry"/>
                </mxCell>
            </root>
        </mxGraphModel>
    </diagram>
</mxfile>